<svg width="949" height="267" viewBox="0 0 949 267" fill="none" xmlns="http://www.w3.org/2000/svg">
<path d="M407 38C330.636 38 287 124.5 287 124.5C287 124.5 330.636 211 407 211" stroke="#FF7856" stroke-width="16" stroke-linecap="round" stroke-linejoin="round"/>
<path d="M405 92C382.909 92 365 106.551 365 124.5C365 142.449 382.909 157 405 157" stroke="#F4B53F" stroke-width="16" stroke-linecap="round" stroke-linejoin="round"/>
<path d="M475 211C551.364 211 595 124.5 595 124.5C595 124.5 551.364 38 475 38" stroke="#FF7856" stroke-width="16" stroke-linecap="round" stroke-linejoin="round"/>
<path d="M480 157C502.091 157 520 142.449 520 124.5C520 106.551 502.091 92 480 92" stroke="#F4B53F" stroke-width="16" stroke-linecap="round" stroke-linejoin="round"/>
<circle cx="441" cy="252" r="15" fill="#E0E0E0"/>
<path d="M441 11V211" stroke="#E0E0E0" stroke-width="22" stroke-linecap="round"/>
<path d="M48.0938 179.875C34.8438 179.875 24.5 175.531 17.0625 166.844C9.625 158.156 5.90625 146.062 5.90625 130.562C5.90625 112.188 8.46875 96.4688 13.5938 83.4062C18.7188 70.3438 26.0938 60.3438 35.7188 53.4062C45.4062 46.4688 57 43 70.5 43C83.5625 43 93.75 47.25 101.062 55.75C108.375 64.25 112.031 76.0938 112.031 91.2812C112.031 109.844 109.5 125.75 104.438 139C99.375 152.188 92.0625 162.312 82.5 169.375C73 176.375 61.5312 179.875 48.0938 179.875ZM51.4688 156.25C58.7188 156.25 64.9062 153.781 70.0312 148.844C75.2188 143.844 79.1875 136.688 81.9375 127.375C84.6875 118 86.0625 106.75 86.0625 93.625C86.0625 85.125 84.4062 78.5 81.0938 73.75C77.7812 69 73.1562 66.625 67.2188 66.625C59.8438 66.625 53.5 69.0625 48.1875 73.9375C42.9375 78.8125 38.9062 85.8438 36.0938 95.0312C33.2812 104.219 31.875 115.281 31.875 128.219C31.875 137.031 33.5938 143.906 37.0312 148.844C40.5312 153.781 45.3438 156.25 51.4688 156.25ZM145.485 182.781L128.985 164.969L181.485 117.062L219.829 73.9375L237.266 91.75L187.11 138.812L145.485 182.781ZM205.673 179.875C197.11 179.875 190.548 177.562 185.985 172.938C181.485 168.312 178.141 160.969 175.954 150.906L168.079 113.781C167.079 109.219 165.798 105.938 164.235 103.938C162.735 101.875 160.673 100.844 158.048 100.844C156.235 100.844 154.485 101 152.798 101.312C151.173 101.625 149.454 102.156 147.641 102.906L141.548 81.8125C149.735 78.4375 156.766 76.75 162.641 76.75C170.579 76.75 176.704 79.0625 181.016 83.6875C185.329 88.25 188.485 95.5938 190.485 105.719L197.891 142.938C198.766 147.5 200.173 150.781 202.11 152.781C204.11 154.781 206.829 155.781 210.266 155.781C212.016 155.781 213.673 155.594 215.235 155.219C216.86 154.781 218.579 154.156 220.391 153.344L226.766 173.875C219.766 177.875 212.735 179.875 205.673 179.875ZM647.261 222.25L636.011 200.219C650.511 194.469 663.105 187.812 673.792 180.25C684.542 172.75 693.699 164.094 701.261 154.281C708.824 144.469 715.042 133.312 719.917 120.812C724.792 108.312 728.636 94.25 731.449 78.625H757.417C752.667 103.562 745.667 125.188 736.417 143.5C727.167 161.75 715.23 177.281 700.605 190.094C686.042 202.906 668.261 213.625 647.261 222.25ZM679.511 76.75C688.324 113.062 700.042 140.531 714.667 159.156L693.386 172.281C685.511 160.594 678.292 147 671.73 131.5C665.167 115.938 659.105 98.3125 653.542 78.625L679.511 76.75ZM845.153 179.875C832.653 179.875 823.215 177.062 816.84 171.438C810.528 165.75 807.371 157.219 807.371 145.844C807.371 143.844 807.653 140.875 808.215 136.938C808.84 133 810.121 127.469 812.059 120.344L824.528 74.2188C825.778 69.4688 825.465 65.8438 823.59 63.3438C821.715 60.8437 818.715 59.5938 814.59 59.5938C811.59 59.5938 808.559 59.7812 805.496 60.1562C802.496 60.4687 799.496 61 796.496 61.75L792.653 38.125C797.278 37.0625 801.903 36.375 806.528 36.0625C811.153 35.6875 815.778 35.5 820.403 35.5C833.09 35.5 842.121 38.7812 847.496 45.3438C852.934 51.9062 853.903 61.5313 850.403 74.2188L837.84 120.344C836.028 127.031 834.809 132.125 834.184 135.625C833.621 139.125 833.34 141.594 833.34 143.031C833.215 151.531 838.996 155.781 850.684 155.781C854.121 155.781 857.153 155.406 859.778 154.656C862.403 153.844 865.528 152.5 869.153 150.625L875.621 172.938C871.246 174.875 866.621 176.531 861.746 177.906C856.934 179.219 851.403 179.875 845.153 179.875Z" fill="#E0E0E0"/>
</svg>
